<svg width="512" height="512" viewBox="0 0 512 512" fill="none" xmlns="http://www.w3.org/2000/svg">
  <defs>
    <linearGradient id="lifko-bg" x1="96" y1="64" x2="416" y2="448" gradientUnits="userSpaceOnUse">
      <stop stop-color="#0F3B4A"/>
      <stop offset="1" stop-color="#092531"/>
    </linearGradient>
    <linearGradient id="lifko-spiral" x1="152" y1="120" x2="372" y2="358" gradientUnits="userSpaceOnUse">
      <stop stop-color="#7DD3FC"/>
      <stop offset="0.55" stop-color="#22D3EE"/>
      <stop offset="1" stop-color="#0891B2"/>
    </linearGradient>
  </defs>
  <rect x="40" y="40" width="432" height="432" rx="120" fill="url(#lifko-bg)"/>
  <path
    d="M256 104
       C339 104 408 173 408 256
       C408 339 342 408 259 408
       C184 408 124 350 124 275
       C124 216 171 168 230 168
       C279 168 320 206 320 255
       C320 296 286 330 245 330
       C211 330 184 303 184 269
       C184 241 207 218 236 218
       C260 218 280 236 280 260
       C280 279 265 294 246 294"
    stroke="url(#lifko-spiral)"
    stroke-width="28"
    stroke-linecap="round"
    stroke-linejoin="round"
  />
  <circle cx="249" cy="262" r="18" fill="url(#lifko-spiral)"/>
</svg>
